HIERARCHY
ROOT root
{
	OFFSET	0	13.1	24.9
	CHANNELS 6  Xposition Yposition Zposition Xrotation Yrotation Zrotation
	JOINT spine_1
	{
		OFFSET	0	9.99999	0
		CHANNELS 3  Xrotation Yrotation Zrotation
		JOINT spine_2
		{
			OFFSET	0	112	-10
			CHANNELS 3  Xrotation Yrotation Zrotation
			JOINT spine_3
			{
				OFFSET	0	206.5	19.3
				CHANNELS 3  Xrotation Yrotation Zrotation
				JOINT spine_4
				{
					OFFSET	0	110.4	14.6
					CHANNELS 3  Xrotation Yrotation Zrotation
					JOINT neck_1
					{
						OFFSET	0	71.8	-50.3
						CHANNELS 3  Xrotation Yrotation Zrotation
						JOINT neck_2
						{
							OFFSET	0	86.2	-25.8
							CHANNELS 3  Xrotation Yrotation Zrotation
							JOINT head_ee
							{
								OFFSET	0	179.8	-8.7
								CHANNELS 3  Xrotation Yrotation Zrotation
								End Site
								{
									OFFSET	1	0	0
								}
							}
						}
					}
					JOINT left_clavicle
					{
						OFFSET	-43.2	22.4	-70.8
						CHANNELS 3  Xrotation Yrotation Zrotation
						JOINT left_shoulder
						{
							OFFSET	-93.9	-5.79999	48.7
							CHANNELS 3  Xrotation Yrotation Zrotation
							JOINT left_elbow
							{
								OFFSET	-291.4	-30.8	15.2
								CHANNELS 3  Xrotation Yrotation Zrotation
								JOINT left_lowarm_twist
								{
									OFFSET	-110.7	-3.89999	13.6
									CHANNELS 3  Xrotation Yrotation Zrotation
									JOINT left_hand
									{
										OFFSET	-110.7	-3.89999	13.6
										CHANNELS 3  Xrotation Yrotation Zrotation
										JOINT left_ee
										{
											OFFSET	-80.8	-5.10001	12.1
											CHANNELS 3  Xrotation Yrotation Zrotation
											End Site
											{
												OFFSET	1	0	0
											}
										}
									}
								}
							}
						}
					}
					JOINT right_clavicle
					{
						OFFSET	43.2	22.4	-70.8
						CHANNELS 3  Xrotation Yrotation Zrotation
						JOINT right_shoulder
						{
							OFFSET	93.9	-5.79999	48.7
							CHANNELS 3  Xrotation Yrotation Zrotation
							JOINT right_elbow
							{
								OFFSET	291.4	-30.8	15.2
								CHANNELS 3  Xrotation Yrotation Zrotation
								JOINT right_lowarm_twist
								{
									OFFSET	110.7	-3.89999	13.6
									CHANNELS 3  Xrotation Yrotation Zrotation
									JOINT right_hand
									{
										OFFSET	110.7	-3.89999	13.6
										CHANNELS 3  Xrotation Yrotation Zrotation
										JOINT right_ee
										{
											OFFSET	80.8	-5.10001	12.1
											CHANNELS 3  Xrotation Yrotation Zrotation
											End Site
											{
												OFFSET	1	0	0
											}
										}
									}
								}
							}
						}
					}
				}
			}
		}
	}
	JOINT left_hip
	{
		OFFSET	-82.8	-127.5	0.300001
		CHANNELS 3  Xrotation Yrotation Zrotation
		JOINT left_knee
		{
			OFFSET	-28.2	-396.7	2.2
			CHANNELS 3  Xrotation Yrotation Zrotation
			JOINT left_ankle
			{
				OFFSET	-11.7	-411.3	35.4
				CHANNELS 3  Xrotation Yrotation Zrotation
				JOINT left_toes
				{
					OFFSET	0	-60	-88.6
					CHANNELS 3  Xrotation Yrotation Zrotation
					JOINT left_foot_ee
					{
						OFFSET	-22.5	-16.5	-42.2
						CHANNELS 3  Xrotation Yrotation Zrotation
						End Site
						{
							OFFSET	1	0	0
						}
					}
				}
			}
		}
	}
	JOINT right_hip
	{
		OFFSET	82.8	-127.5	0.300001
		CHANNELS 3  Xrotation Yrotation Zrotation
		JOINT right_knee
		{
			OFFSET	28.2	-396.7	2.2
			CHANNELS 3  Xrotation Yrotation Zrotation
			JOINT right_ankle
			{
				OFFSET	11.7	-411.3	35.4
				CHANNELS 3  Xrotation Yrotation Zrotation
				JOINT right_toes
				{
					OFFSET	0	-60	-88.6
					CHANNELS 3  Xrotation Yrotation Zrotation
					JOINT right_foot_ee
					{
						OFFSET	22.5	-16.5	-42.2
						CHANNELS 3  Xrotation Yrotation Zrotation
						End Site
						{
							OFFSET	1	0	0
						}
					}
				}
			}
		}
	}
}
MOTION
Frames: 5
Frame Time: 0.02
876.552086679 602.994 -1791.0336212 -14.4672910543 14.306770271 11.9419332862 8.6562 -0.435566 -2.88047 8.66078 -0.251471 -2.90232 8.66485 -0.075628 -2.9122 8.65341 -0.534416 -2.86379 -21.4499 -2.84874 3.56536 -21.5001 -7.2177 2.04473 -0.0 0.0 -0.0 4.04361 14.6469 8.25984 -20.7816 -24.1917 55.9833 1.45531 -35.7864 0.469886 -10.8424 -0.505667 1.28865 -2.62926 22.5399 -6.23984 -0.0 0.0 -0.0 5.58351 7.76067 -10.5228 -46.7352 25.3451 -59.0867 0.525985 14.6043 -0.0674009 36.4487 0.177548 4.57513 0.571272 -9.31617 -7.55873 0.0 0.0 0.0 27.5314 -30.0938 -4.32378 -21.2892 0.278089 3.23639 8.99527 29.5159 -1.3794 37.2951 -0.0 -0.0 -0.0 0.0 -0.0 37.3269 8.9324 -3.95992 -46.0078 0.892523 -6.81796 4.53986 -12.2297 0.658143 26.062 -0.0 -0.0 0.0 0.0 0.0 
875.998582927 602.286 -1793.51693668 -14.4965997216 12.7062005247 11.7353717164 8.69917 -0.339745 -2.88071 8.70377 -0.155828 -2.89647 8.70298 0.0176782 -2.9006 8.69151 -0.440449 -2.86705 -23.1634 -2.73463 4.87076 -23.2014 -7.48287 3.22412 -0.0 0.0 -0.0 4.17323 13.7063 8.46076 -19.7149 -23.6563 55.5445 1.43154 -35.34 0.456058 -11.4529 -0.541306 1.35815 -2.70118 21.3066 -7.317 -0.0 0.0 -0.0 5.80422 7.44116 -10.9942 -47.2264 25.5982 -58.3586 0.524331 14.5603 -0.0669844 36.263 0.169294 4.55288 0.399559 -9.96176 -6.69936 0.0 0.0 0.0 27.5235 -30.0886 -4.61584 -22.0152 0.266256 3.34716 8.17449 29.7696 -1.25872 37.1156 -0.0 -0.0 -0.0 0.0 -0.0 38.6753 5.06562 -3.04352 -44.6436 0.788304 -6.63575 4.61801 -11.0015 0.668471 26.5544 -0.0 -0.0 0.0 0.0 0.0 
868.84623723 607.868 -1796.90709438 -14.5902510549 11.9986049537 12.5744681273 8.982 -0.515576 -2.9726 8.98686 -0.325464 -2.99935 8.99418 -0.161061 -3.01265 8.98208 -0.634622 -2.9495 -26.5974 -3.95652 2.94934 -26.7466 -8.77392 0.630261 -0.0 0.0 -0.0 4.58178 12.8269 9.1348 -18.7312 -22.304 54.5236 1.25719 -31.9122 0.359465 -12.1313 -0.581781 1.43493 -2.97094 20.5831 -9.31558 -0.0 0.0 -0.0 5.48042 6.77381 -10.3569 -47.1576 26.2378 -58.4698 0.530078 14.713 -0.0684366 35.8957 0.153172 4.50877 0.12305 -11.1734 -5.40244 0.0 0.0 0.0 27.0231 -29.7288 -5.44422 -23.2722 0.24245 3.53858 6.49498 29.9093 -1.00575 35.6553 -0.0 -0.0 -0.0 0.0 -0.0 40.8461 2.76896 -5.65121 -38.5695 0.378279 -5.79699 3.92696 -9.29495 0.56897 24.9448 -0.0 -0.0 0.0 0.0 0.0 
866.788746626 607.868 -1799.5164692 -14.9843535358 11.8070535 13.1458585503 9.04442 -0.578503 -3.04149 9.04948 -0.383887 -3.07209 9.05978 -0.219049 -3.08821 9.04716 -0.703803 -3.01498 -27.6003 -4.28266 2.4593 -27.7822 -9.15431 -0.0717485 -0.0 0.0 -0.0 4.80163 12.701 9.50483 -18.4131 -21.8707 54.3338 1.22816 -31.3148 0.344247 -12.3596 -0.595608 1.46067 -3.06705 20.2937 -10.0538 -0.0 0.0 -0.0 5.39872 6.4667 -10.2034 -47.0901 26.3886 -58.5589 0.541779 15.0233 -0.071439 35.8364 0.150598 4.50164 0.0469205 -11.4706 -5.03526 0.0 0.0 0.0 27.0702 -29.094 -5.95181 -23.6281 0.234948 3.59268 5.98208 29.9062 -0.927571 35.2845 -0.0 -0.0 -0.0 0.0 -0.0 41.4438 1.86792 -6.04067 -34.9057 0.174874 -5.27212 3.63982 -8.88155 0.527731 24.4196 -0.0 -0.0 0.0 0.0 0.0 
863.936365702 607.522 -1800.05453293 -15.3354920557 11.8350823859 13.8338496618 9.12512 -0.646184 -3.1039 9.13037 -0.447465 -3.13868 9.14404 -0.283725 -3.15768 9.13097 -0.778626 -3.07338 -28.8953 -4.7121 1.7627 -29.1224 -9.65728 -1.06199 -0.0 0.0 -0.0 5.04459 12.2198 9.9177 -17.665 -21.5459 54.1459 1.16885 -30.0704 0.313973 -12.6119 -0.611008 1.48905 -3.15847 19.9692 -10.7883 -0.0 0.0 -0.0 5.2871 6.17997 -9.9882 -46.8058 26.7057 -58.7341 0.564563 15.6248 -0.0774604 35.7348 0.1462 4.48941 -0.0434335 -11.8163 -4.59906 0.0 0.0 0.0 26.7141 -28.6189 -6.70613 -24.0412 0.225818 3.65541 5.49674 29.8703 -0.853188 34.8106 -0.0 -0.0 -0.0 0.0 -0.0 42.2306 1.39898 -6.83017 -31.1784 0.00286836 -4.72618 3.33214 -8.26876 0.4835 23.8315 -0.0 -0.0 0.0 0.0 0.0 
